<svg height="30px" viewBox="0 0 512.003 512" width="30px" xmlns="http://www.w3.org/2000/svg"><path d="m486.082031 281.933594c14.289063 0 25.917969-11.640625 25.917969-25.945313 0-14.292969-11.628906-25.921875-25.917969-25.921875h-22.816406v-32.25h22.816406c14.289063 0 25.917969-11.628906 25.917969-25.917968 0-14.292969-11.628906-25.921876-25.917969-25.921876h-22.816406v-58.539062c0-21.339844-17.363281-38.703125-38.703125-38.703125h-58.539062v-22.8125c0-14.292969-11.628907-25.921875-25.917969-25.921875-14.308594 0-25.949219 11.628906-25.949219 25.921875v22.816406h-32.222656v-22.816406c0-14.292969-11.640625-25.921875-25.949219-25.921875-14.289063 0-25.917969 11.628906-25.917969 25.921875v22.816406h-32.253906v-22.816406c0-14.292969-11.625-25.921875-25.917969-25.921875-14.289062 0-25.917969 11.628906-25.917969 25.921875v22.816406h-58.542968c-21.335938 0-38.699219 17.359375-38.699219 38.699219v58.542969h-22.816406c-14.289063-.003907-25.917969 11.625-25.917969 25.917969 0 14.292968 11.628906 25.917968 25.917969 25.917968h22.816406v32.253906h-22.816406c-14.289063 0-25.917969 11.625-25.917969 25.917969 0 14.304688 11.628906 25.945313 25.917969 25.945313h22.816406v32.226562h-22.816406c-14.289063 0-25.917969 11.636719-25.917969 25.945313 0 14.292969 11.628906 25.917969 25.917969 25.917969h22.816406v58.542968c0 21.339844 17.363281 38.699219 38.703125 38.699219h58.539062v22.816406c0 14.292969 11.628907 25.921875 25.921876 25.921875 14.289062 0 25.917968-11.628906 25.917968-25.921875v-22.816406h32.25v22.816406c0 14.292969 11.628906 25.921875 25.921875 25.921875 14.308594 0 25.945313-11.628906 25.945313-25.921875v-22.816406h32.226562v22.816406c0 14.292969 11.640625 25.921875 25.945313 25.921875 14.292969 0 25.917969-11.628906 25.917969-25.921875v-22.816406h58.542968c21.339844 0 38.703125-17.359375 38.703125-38.699219v-58.542968h22.816407c14.289062 0 25.917968-11.625 25.917968-25.917969 0-14.308594-11.628906-25.945313-25.917968-25.945313h-22.816407v-32.226562zm0-36.808594c5.988281 0 10.859375 4.875 10.859375 10.863281 0 6.003907-4.871094 10.886719-10.859375 10.886719h-22.816406v-21.75zm0-84.085938c5.988281 0 10.859375 4.871094 10.859375 10.859376 0 5.988281-4.871094 10.859374-10.859375 10.859374h-22.816406v-21.71875zm-156.867187-135.117187c0-5.992187 4.886718-10.863281 10.890625-10.863281 5.988281 0 10.859375 4.871094 10.859375 10.863281v22.816406h-21.75zm-84.089844 0c0-5.992187 4.871094-10.863281 10.859375-10.863281 6.003906 0 10.890625 4.871094 10.890625 10.863281v22.816406h-21.75zm-84.089844 0c0-5.992187 4.871094-10.863281 10.859375-10.863281 5.992188 0 10.863281 4.871094 10.863281 10.863281v22.816406h-21.722656zm-135.117187 156.835937c-5.988281 0-10.859375-4.871093-10.859375-10.859374 0-5.988282 4.871094-10.859376 10.859375-10.859376h22.816406v21.71875zm0 84.117188c-5.988281 0-10.859375-4.882812-10.859375-10.886719 0-5.988281 4.871094-10.859375 10.859375-10.859375h22.816406v21.746094zm0 84.089844c-5.988281 0-10.859375-4.871094-10.859375-10.859375 0-6.003907 4.871094-10.886719 10.859375-10.886719h22.816406v21.746094zm156.839843 135.117187c0 5.988281-4.875 10.859375-10.863281 10.859375s-10.859375-4.871094-10.859375-10.859375v-22.816406h21.722656zm84.117188 0c0 5.988281-4.886719 10.859375-10.890625 10.859375-5.988281 0-10.859375-4.871094-10.859375-10.859375v-22.816406h21.75zm84.089844 0c0 5.988281-4.871094 10.859375-10.859375 10.859375-6.003907 0-10.890625-4.871094-10.890625-10.859375v-22.816406h21.75zm97.242187-61.515625c0 13.035156-10.605469 23.640625-23.640625 23.640625h-337.132812c-13.035156 0-23.640625-10.605469-23.640625-23.640625v-337.128906c0-13.035156 10.605469-23.644531 23.640625-23.644531h337.128906c13.039062 0 23.644531 10.609375 23.644531 23.644531zm37.875-95.347656c5.988281 0 10.859375 4.882812 10.859375 10.886719 0 5.988281-4.871094 10.859375-10.859375 10.859375h-22.816406v-21.746094zm0 0"/><path d="m321.34375 171.03125h-54.570312c-4.160157 0-7.527344 3.371094-7.527344 7.527344s3.371094 7.527344 7.527344 7.527344h54.570312c2.460938 0 4.542969 2.09375 4.542969 4.570312v130.691406c0 2.460938-2.082031 4.539063-4.542969 4.539063h-130.6875c-2.476562 0-4.570312-2.082031-4.570312-4.539063v-130.691406c0-2.519531 2.050781-4.570312 4.570312-4.570312h46.257812c4.15625 0 7.527344-3.371094 7.527344-7.527344s-3.371094-7.527344-7.527344-7.527344h-46.257812c-10.824219 0-19.628906 8.804688-19.628906 19.625v130.691406c0 10.808594 8.804687 19.597656 19.628906 19.597656h130.6875c10.808594 0 19.601562-8.789062 19.601562-19.597656v-130.691406c0-10.824219-8.792968-19.625-19.601562-19.625zm0 0"/><path d="m415.425781 173.449219c4.160157 0 7.53125-3.371094 7.53125-7.53125 0-4.15625-3.371093-7.527344-7.53125-7.527344h-24.011719v-10.320313c0-15.152343-12.339843-27.484374-27.511718-27.484374h-10.320313v-24.011719c0-4.160157-3.371093-7.527344-7.527343-7.527344-4.160157 0-7.53125 3.371094-7.53125 7.527344v24.011719h-29.003907v-24.011719c0-4.160157-3.371093-7.527344-7.53125-7.527344-4.15625 0-7.527343 3.371094-7.527343 7.527344v24.011719h-30.945313v-24.011719c0-4.160157-3.371094-7.527344-7.527344-7.527344-4.160156 0-7.53125 3.371094-7.53125 7.527344v24.011719h-30.941406v-24.011719c0-4.160157-3.371094-7.527344-7.53125-7.527344-4.15625 0-7.527344 3.371094-7.527344 7.527344v24.011719h-29.007812v-24.011719c0-4.160157-3.371094-7.527344-7.527344-7.527344-4.160156 0-7.53125 3.371094-7.53125 7.527344v24.011719h-10.316406c-15.15625 0-27.484375 12.332031-27.484375 27.484374v10.320313h-24.015625c-4.160157 0-7.53125 3.371094-7.53125 7.527344 0 4.160156 3.371093 7.53125 7.53125 7.53125h24.011719v29.007812h-24.011719c-4.160157 0-7.53125 3.371094-7.53125 7.527344 0 4.160156 3.371093 7.527344 7.53125 7.527344h24.011719v30.945312h-24.011719c-4.160157 0-7.53125 3.371094-7.53125 7.527344 0 4.160156 3.371093 7.53125 7.53125 7.53125h24.011719v30.941406h-24.011719c-4.160157 0-7.53125 3.371094-7.53125 7.53125 0 4.15625 3.371093 7.527344 7.53125 7.527344h24.011719v29.007813h-24.011719c-4.160157 0-7.53125 3.371093-7.53125 7.527343 0 4.160157 3.371093 7.53125 7.53125 7.53125h24.011719v10.320313c0 15.167968 12.328124 27.511718 27.484374 27.511718h10.320313v24.011719c0 4.160157 3.371094 7.527344 7.527344 7.527344s7.527343-3.371094 7.527343-7.527344v-24.011719h29.007813v24.011719c0 4.160157 3.371094 7.527344 7.53125 7.527344 4.15625 0 7.527344-3.371094 7.527344-7.527344v-24.011719h30.941406v24.011719c0 4.160157 3.371094 7.527344 7.53125 7.527344 4.15625 0 7.527344-3.371094 7.527344-7.527344v-24.011719h30.945312v24.011719c0 4.160157 3.371094 7.527344 7.527344 7.527344 4.160156 0 7.53125-3.371094 7.53125-7.527344v-24.011719h29.007813v24.011719c0 4.160157 3.371093 7.527344 7.527343 7.527344 4.160157 0 7.527344-3.371094 7.527344-7.527344v-24.011719h10.320313c15.171874 0 27.511718-12.34375 27.511718-27.511718v-10.320313h24.015625c4.15625 0 7.527344-3.371093 7.527344-7.53125 0-4.15625-3.371094-7.527343-7.527344-7.527343h-24.015625v-29.007813h24.015625c4.15625 0 7.527344-3.371094 7.527344-7.527344 0-4.160156-3.371094-7.53125-7.527344-7.53125h-24.015625v-30.941406h24.015625c4.15625 0 7.527344-3.371094 7.527344-7.53125 0-4.15625-3.371094-7.527344-7.527344-7.527344h-24.015625v-30.945312h24.015625c4.15625 0 7.527344-3.371094 7.527344-7.527344 0-4.160156-3.371094-7.527344-7.527344-7.527344h-24.015625v-29.007812zm-51.523437 202.910156h-17.289063c-.183593-.015625-.371093-.027344-.558593-.027344-.191407 0-.375.011719-.5625.027344h-42.945313c-.1875-.015625-.371094-.027344-.5625-.027344-.1875 0-.375.011719-.558594.027344h-44.882812c-.183594-.015625-.371094-.027344-.558594-.027344-.191406 0-.375.011719-.5625.027344h-44.878906c-.1875-.015625-.371094-.027344-.5625-.027344-.1875 0-.375.011719-.558594.027344h-42.945313c-.1875-.015625-.371093-.027344-.5625-.027344-.1875 0-.375.011719-.5625.027344h-17.285156c-6.851562 0-12.425781-5.585937-12.425781-12.457031v-215.832032c0-6.851562 5.574219-12.425781 12.425781-12.425781h215.832032c6.867187 0 12.453124 5.574219 12.453124 12.425781v17.289063c-.011718.183594-.027343.371094-.027343.558594 0 .191406.015625.375.027343.5625v42.945312c-.011718.1875-.027343.371094-.027343.5625 0 .1875.015625.375.027343.558594v44.878906c-.011718.1875-.027343.371094-.027343.5625 0 .191407.015625.375.027343.5625v44.878907c-.011718.1875-.027343.371093-.027343.5625 0 .1875.015625.375.027343.558593v42.945313c-.011718.1875-.027343.371094-.027343.5625s.015625.375.027343.5625v17.285156c.003907 6.867188-5.582031 12.453125-12.449218 12.453125zm0 0"/></svg>