<svg height="512pt" viewBox="0 -66 512.001 512" width="512pt" xmlns="http://www.w3.org/2000/svg"><path d="m388.421875 335.152344h-.367187c-4.144532 0-7.5 3.363281-7.5 7.507812 0 4.144532 3.355468 7.507813 7.5 7.507813h.367187c4.140625 0 7.5-3.363281 7.5-7.507813 0-4.144531-3.359375-7.507812-7.5-7.507812zm0 0"/><path d="m422.835938 335.152344h-.367188c-4.144531 0-7.5 3.363281-7.5 7.507812 0 4.144532 3.355469 7.507813 7.5 7.507813h.367188c4.140624 0 7.496093-3.363281 7.496093-7.507813 0-4.144531-3.355469-7.507812-7.496093-7.507812zm0 0"/><path d="m457.246094 335.152344h-.367188c-4.140625 0-7.496094 3.363281-7.496094 7.507812 0 4.144532 3.355469 7.507813 7.496094 7.507813h.367188c4.144531 0 7.5-3.363281 7.5-7.507813 0-4.144531-3.355469-7.507812-7.5-7.507812zm0 0"/><path d="m478.722656 306.453125.027344-95.792969c0-4.144531-3.355469-7.503906-7.496094-7.507812 0 0 0 0-.003906 0-4.140625 0-7.496094 3.359375-7.496094 7.503906l-.027344 95.664062h-415.453124v-268.132812c0-12.777344 10.382812-23.171875 23.148437-23.171875h369.128906c12.777344 0 23.175781 10.394531 23.175781 23.171875v137.820312c0 4.144532 3.355469 7.503907 7.496094 7.503907s7.5-3.359375 7.5-7.503907v-137.820312c0-21.054688-17.125-38.1875-38.171875-38.1875h-369.128906c-21.03125 0-38.144531 17.132812-38.144531 38.1875v268.265625c-18.605469 1.542969-33.277344 17.1875-33.277344 36.207031 0 20.039063 16.285156 36.34375 36.300781 36.34375h439.402344c20.015625 0 36.296875-16.304687 36.296875-36.34375 0-19.019531-14.671875-34.664062-33.277344-36.207031zm-156.417968 14.878906v11.410157h-126.0625l-.015626-11.410157zm153.394531 42.65625h-439.398438c-11.746093 0-21.304687-9.566406-21.304687-21.328125 0-11.761718 9.558594-21.328125 21.304687-21.328125h144.929688l.019531 13.921875c0 6.894532 5.601562 12.5 12.488281 12.5h131.074219c6.882812 0 12.488281-5.609375 12.488281-12.5v-13.921875h138.402344c11.746094 0 21.300781 9.566407 21.300781 21.328125 0 11.761719-9.554687 21.328125-21.304687 21.328125zm0 0"/><path d="m239.09375 34.625-158.746094-.054688c-9.058594 0-16.425781 7.390626-16.425781 16.472657v217.96875c0 9.070312 7.367187 16.445312 16.425781 16.445312h350.140625c9.058594 0 16.425781-7.375 16.425781-16.445312v-217.96875c0-9.085938-7.367187-16.472657-16.425781-16.472657h-156.785156c-4.140625 0-7.5 3.359376-7.5 7.503907 0 4.148437 3.359375 7.507812 7.5 7.507812h156.785156c.777344 0 1.433594.667969 1.433594 1.460938v217.96875c0 .765625-.667969 1.433593-1.433594 1.433593h-350.140625c-.761718 0-1.429687-.667968-1.429687-1.433593v-217.96875c0-.792969.65625-1.460938 1.429687-1.460938l158.742188.058594c4.140625 0 7.496094-3.359375 7.5-7.507813 0-4.144531-3.355469-7.507812-7.496094-7.507812zm0 0"/><path d="m157.664062 115.296875v89.460937c0 15.171876 12.328126 27.515626 27.484376 27.515626h146.636718c15.171875 0 27.511719-12.34375 27.511719-27.515626v-89.460937c0-15.1875-12.339844-27.542969-27.511719-27.542969h-146.636718c-15.15625 0-27.484376 12.359375-27.484376 27.542969zm186.636719 0v89.460937c0 6.890626-5.613281 12.5-12.515625 12.5h-146.636718c-6.886719 0-12.488282-5.605468-12.488282-12.5v-89.460937c0-6.90625 5.601563-12.527344 12.488282-12.527344h146.636718c6.902344 0 12.515625 5.621094 12.515625 12.527344zm0 0"/><path d="m219.433594 177.34375c.003906.085938.007812.171875.011718.257812.566407 9.8125 4.957032 17.636719 12.046876 21.464844 2.546874 1.375 5.949218 2.519532 10.214843 2.519532 4.625 0 10.261719-1.347657 16.921875-5.199219l11.679688-6.757813c.050781-.027344.097656-.054687.144531-.085937l14.6875-8.9375c.074219-.046875.144531-.09375.21875-.140625 8.199219-5.390625 12.765625-13.101563 12.535156-21.160156-.171875-6.039063-3.066406-14.796876-15.882812-22.210938l-11.707031-6.757812c-.046876-.027344-.09375-.050782-.144532-.078126l-15.050781-8.257812c-.078125-.042969-.152344-.082031-.230469-.121094-8.765625-4.421875-17.722656-4.527344-24.578125-.300781-5.140625 3.171875-11.265625 10.058594-11.265625 24.882813v13.511718.171875zm14.597656-30.882812c0-6.070313 1.507812-10.480469 4.136719-12.101563 2.269531-1.398437 5.945312-1.070313 9.859375.875l14.859375 8.148437 11.628906 6.710938c5.246094 3.035156 8.304687 6.550781 8.390625 9.640625.078125 2.667969-2.042969 5.695313-5.679688 8.113281l-14.492187 8.824219-11.605469 6.714844c-5.242187 3.03125-9.804687 3.929687-12.519531 2.460937-2.347656-1.265625-3.910156-4.625-4.1875-8.992187l-.390625-16.972657zm0 0"/></svg>