<?xml version="1.0" encoding="UTF-8"?>
<svg width="1119px" height="284px" viewBox="0 0 1119 284" version="1.1" xmlns="http://www.w3.org/2000/svg" xmlns:xlink="http://www.w3.org/1999/xlink">
    <!-- Generator: Sketch 47.1 (45422) - http://www.bohemiancoding.com/sketch -->
    <title>Quantium-Masterbrand-PrimaryLogo-RGB_Quantium</title>
    <desc>Created with Sketch.</desc>
    <defs></defs>
    <g id="Page-1" stroke="none" stroke-width="1" fill="none" fill-rule="evenodd">
        <g id="Quantium-Masterbrand-PrimaryLogo-RGB_Quantium" fill-rule="nonzero" fill="#B7B7B7">
            <path d="M427.9,91.4 L411.5,91.4 C410.7,91.4 410.3,91.6 410.1,92.4 L408.2,99.3 C407.8,100.3 406.8,100.3 406.1,99.5 C401.1,94.5 389.7,89.5 380,89.5 C352.2,89.5 334.8,110.2 334.8,140.3 C334.8,170.4 353.1,191.1 380,191.1 C396.2,191.1 405.7,181.8 406.6,180.9 C407.2,180.3 408.1,180.9 408.1,181.5 L408.1,226.5 C408.1,227.1 408.5,227.5 409.1,227.5 L427.8,227.5 C428.4,227.5 428.8,227.1 428.8,226.5 L428.8,92.4 C428.9,91.8 428.5,91.4 427.9,91.4 Z M383,172.1 C365.4,172.1 355.8,159 355.8,140.3 C355.8,121.6 365.5,108.3 383,108.3 C399.4,108.3 408.3,121.6 408.3,140.3 C408.3,160 399.4,172.1 383,172.1 Z M531.2,91.4 L512.5,91.4 C511.9,91.4 511.5,91.8 511.5,92.4 L511.5,146.2 C511.5,159.5 503.8,172.1 488.1,172.1 C470.9,172.1 464.6,158.4 464.6,145.3 L464.6,92.4 C464.6,91.8 464.2,91.4 463.6,91.4 L444.7,91.4 C444.1,91.4 443.7,91.8 443.7,92.4 L443.7,145.3 C443.7,170 456.1,191 485.2,191 C495.6,191 505.5,185.8 509.3,180.6 C509.9,180 511,179.6 511.4,180.8 L513.3,188.1 C513.5,188.7 513.9,189.1 514.7,189.1 L531.1,189.1 C531.7,189.1 532.1,188.7 532.1,188.1 L532.1,92.4 C532.2,91.8 531.8,91.4 531.2,91.4 Z M646.6,171.3 L642.4,171.3 C638.3,171.3 635.6,168.4 635.6,164.9 L635.6,125.3 C635.6,101.4 619,89.4 592.4,89.4 C570,89.4 549.9,100.6 549.9,123.4 C549.9,124 550.3,124.4 550.9,124.4 L569.6,124.4 C570.2,124.4 570.6,124 570.6,123.4 C570.8,115.3 576.8,108.3 592.4,108.3 C613.2,108.3 615,118.3 615,124.3 C615,126.6 612.9,129.7 608.8,129.7 L588.9,129.7 C560.7,129.7 546.6,143.2 546.6,160 C546.6,177.9 559,190.9 585,190.9 C601.4,190.9 612.6,184.7 617.4,179.7 C618,179.1 618.8,179.3 619.1,179.9 C622.4,185.7 628.2,189 638.8,189 L646.5,189 C647.1,189 647.5,188.6 647.5,188 L647.5,172.2 C647.6,171.7 647.2,171.3 646.6,171.3 Z M615,149 C614.8,159.8 606.7,172.4 585.1,172.4 C571.6,172.4 567.3,165.6 567.3,160.2 C567.3,154.2 570.6,146.7 589.5,146.7 L614,146.7 C614.6,146.7 615,147.1 615,147.7 L615,149 Z M708.8,89.5 C698.4,89.5 688.5,94.7 684.7,99.9 C684.1,100.5 683,100.9 682.6,99.7 L680.7,92.4 C680.5,91.8 680.1,91.4 679.3,91.4 L662.9,91.4 C662.3,91.4 661.9,91.8 661.9,92.4 L661.9,188.1 C661.9,188.7 662.3,189.1 662.9,189.1 L681.6,189.1 C682.2,189.1 682.6,188.7 682.6,188.1 L682.6,134.3 C682.6,121 690.3,108.4 706,108.4 C723.2,108.4 729.5,122.1 729.5,135.2 L729.5,188.1 C729.5,188.7 729.9,189.1 730.5,189.1 L749.4,189.1 C750,189.1 750.4,188.7 750.4,188.1 L750.4,135.2 C750.3,110.5 737.9,89.5 708.8,89.5 Z M817.2,91.4 L797,91.4 C796.4,91.4 796,91 796,90.4 L796,64.3 C796,63.7 795.6,63.3 795,63.3 L776.1,63.3 C775.5,63.3 775.1,63.7 775.1,64.3 L775.1,90.4 C775.1,91 774.7,91.4 774.1,91.4 L757.7,91.4 C757.1,91.4 756.7,91.8 756.7,92.4 L756.7,107.8 C756.7,108.4 757.1,108.8 757.7,108.8 L774.1,108.8 C774.7,108.8 775.1,109.2 775.1,109.8 L775.1,161.9 C775.1,181.2 782.6,189.1 802.1,189.1 L817.2,189.1 C817.8,189.1 818.2,188.7 818.2,188.1 L818.2,171.3 C818.2,170.7 817.8,170.3 817.2,170.3 L804.7,170.3 C798.9,170.3 796,167.2 796,162.4 L796,109.7 C796,109.1 796.4,108.7 797,108.7 L817.3,108.7 C817.9,108.7 818.3,108.3 818.3,107.7 L818.3,92.3 C818.2,91.8 817.8,91.4 817.2,91.4 Z M958.1,91.4 L939.4,91.4 C938.8,91.4 938.4,91.8 938.4,92.4 L938.4,146.2 C938.4,159.5 930.7,172.1 915,172.1 C897.8,172.1 891.5,158.4 891.5,145.3 L891.5,92.4 C891.5,91.8 891.1,91.4 890.5,91.4 L871.6,91.4 C871,91.4 870.6,91.8 870.6,92.4 L870.6,145.3 C870.6,170 883,191 912.1,191 C922.5,191 932.4,185.8 936.2,180.6 C936.8,180 937.9,179.6 938.3,180.8 L940.2,188.1 C940.4,188.7 940.8,189.1 941.6,189.1 L958,189.1 C958.6,189.1 959,188.7 959,188.1 L959,92.4 C959.1,91.8 958.7,91.4 958.1,91.4 Z M1079.5,89.5 C1068.7,89.5 1058.7,94.1 1052.1,101.1 C1051.3,101.9 1050.6,101.5 1050.2,101.1 C1043.3,93.4 1036.1,89.5 1023.8,89.5 C1014.5,89.5 1004.9,94.9 1000.6,99.9 C999.8,100.7 998.9,100.7 998.5,99.7 L996.6,92.6 C996.4,91.8 996,91.4 995.2,91.4 L978.8,91.4 C978.2,91.4 977.8,91.8 977.8,92.4 L977.8,188.1 C977.8,188.7 978.2,189.1 978.8,189.1 L997.5,189.1 C998.1,189.1 998.5,188.7 998.5,188.1 L998.5,134.8 C998.5,120.5 1003.3,108.4 1018,108.4 C1033.8,108.4 1037.5,121.5 1037.5,134.8 L1037.5,188.1 C1037.5,188.9 1037.7,189.1 1038.5,189.1 L1057.4,189.1 C1057.8,189.1 1058.4,188.7 1058.4,188.1 L1058.4,134.8 C1058.4,120.5 1062.1,108.4 1077.7,108.4 C1093.9,108.4 1097.4,121.7 1097.4,134.8 L1097.4,188.1 C1097.4,188.7 1097.8,189.1 1098.4,189.1 L1117.1,189.1 C1117.7,189.1 1118.1,188.7 1118.1,188.1 L1118.1,134.3 C1117.9,104.8 1104.2,89.5 1079.5,89.5 Z M854.1,91.4 L835.4,91.4 C834.8,91.4 834.4,91.8 834.4,92.4 L834.4,188.1 C834.4,188.7 834.8,189.1 835.4,189.1 L854.1,189.1 C854.7,189.1 855.1,188.7 855.1,188.1 L855.1,92.4 C855.1,91.8 854.7,91.4 854.1,91.4 Z M844.7,53.7 C837.8,53.7 832.2,59.3 832.2,66.2 C832.2,73.1 837.8,78.7 844.7,78.7 C851.6,78.7 857.2,73.1 857.2,66.2 C857.2,59.3 851.7,53.7 844.7,53.7 Z M141.1,0.2 C63.3,0.2 0.3,63.2 0.3,141 C0.3,218.8 63.3,281.8 141.1,281.8 C218.9,281.8 281.9,218.8 281.9,141 C281.9,63.2 218.9,0.2 141.1,0.2 Z M103.7,178.4 C83.1,157.8 83.1,124.3 103.7,103.7 C124.3,83.1 157.8,83.1 178.4,103.7 C199,124.3 199,157.8 178.4,178.4 C157.8,199 124.4,199 103.7,178.4 Z M209.5,235.9 C194.9,235.9 183.1,224.1 183.1,209.5 C183.1,194.9 194.9,183.1 209.5,183.1 C224.1,183.1 235.9,194.9 235.9,209.5 C235.9,224.1 224.1,235.9 209.5,235.9 Z M265.5,247.9 C255.8,247.9 247.9,255.8 247.9,265.5 C247.9,275.2 255.8,283.1 265.5,283.1 C275.2,283.1 283.1,275.2 283.1,265.5 C283.1,255.8 275.3,247.9 265.5,247.9 Z" id="Shape"></path>
        </g>
    </g>
</svg>