<svg height="512pt" viewBox="-91 0 512 512.001" width="512pt" xmlns="http://www.w3.org/2000/svg"><path d="m306.648438 227.910156c12.324218 0 22.351562-10.015625 22.351562-22.332031v-11.878906c0-12.316407-10.027344-22.335938-22.351562-22.335938h-7.136719v-26.609375c0-17.675781-12.015625-32.589844-28.3125-37.039062v-14.601563c0-6.605469-3.929688-12.292969-9.566407-14.902343l-8.121093-62.660157c-1.113281-9.011719-9.320313-15.550781-19.511719-15.550781h-165.960938c-10.15625 0-18.371093 6.523438-19.535156 15.511719l-8.101562 62.703125c-5.636719 2.605468-9.5625 8.296875-9.5625 14.898437v13.996094c-17.566406 3.535156-30.839844 19.070313-30.839844 37.644531v222.464844c0 18.578125 13.273438 34.109375 30.839844 37.644531v13.996094c0 6.601563 3.925781 12.292969 9.5625 14.898437l8.101562 62.738282c1.171875 8.984375 9.382813 15.503906 19.535156 15.503906h165.960938c10.183594 0 18.390625-6.535156 19.507812-15.507812l8.125-62.730469c5.640626-2.609375 9.566407-8.296875 9.566407-14.902344v-14.601563c16.296875-4.453124 28.3125-19.367187 28.3125-37.039062v-33.640625h7.136719c12.324218 0 22.351562-10.007813 22.351562-22.304687v-11.910157c0-12.296875-10.027344-22.304687-22.351562-22.304687h-7.136719v-49.148438zm0-41.371094c3.949218 0 7.160156 3.214844 7.160156 7.160157v11.878906c0 3.945313-3.210938 7.160156-7.160156 7.160156h-7.136719v-26.195312h7.136719zm-238.609376-171.363281h165.960938c2.714844 0 4.320312 1.300781 4.445312 2.28125l7.675782 59.230469h-71.957032c-4.195312 0-7.597656 3.398438-7.597656 7.589844s3.402344 7.585937 7.597656 7.585937h80.597657c.652343 0 1.25.597657 1.25 1.25v13.238281h-209.980469v-13.238281c0-.675781.570312-1.25 1.246094-1.25.003906 0 .007812.003907.011718.003907.003907 0 .011719-.003907.019532-.003907h91.765625c4.195312 0 7.59375-3.394531 7.59375-7.585937s-3.398438-7.589844-7.59375-7.589844h-83.160157l7.652344-59.230469c.121094-.921875 1.625-2.28125 4.472656-2.28125zm187.96875 390.441407v13.242187c0 .675781-.570312 1.246094-1.246093 1.246094h-207.484375c-.6875 0-1.25-.558594-1.25-1.246094v-13.242187zm-17.570312 88.964843c-.09375.757813-1.53125 2.242188-4.4375 2.242188h-165.960938c-2.722656 0-4.347656-1.328125-4.46875-2.277344l-7.65625-59.265625h190.207032zm45.882812-127.367187c0 12.808594-10.425781 23.226562-23.242187 23.226562h-221.5625c-.355469-.050781-.714844-.085937-1.082031-.085937-.316406 0-.625.023437-.929688.0625-12.386718-.488281-22.3125-10.707031-22.3125-23.203125v-222.460938c0-12.441406 9.839844-22.625 22.152344-23.195312.359375.050781.71875.085937 1.089844.085937.433594 0 .855468-.046875 1.269531-.113281h221.375c.578125 0 1.148437.027344 1.71875.070312.042969.003907.082031.003907.125.007813 11.957031.945313 21.402344 10.960937 21.402344 23.144531v222.460938zm22.328126-74.980469c3.949218 0 7.160156 3.199219 7.160156 7.128906v11.90625c0 3.933594-3.210938 7.128907-7.160156 7.128907h-7.136719v-26.164063zm0 0"/><path d="m134.035156 264.191406c5.695313 5.09375 11.394532 7.640625 17.0625 7.640625 5.757813 0 11.480469-2.628906 17.128906-7.882812.121094-.113281.242188-.230469.355469-.351563l26.59375-28.238281c13.332031-14.183594 13.332031-37.261719-.007812-51.453125-5.441407-5.773438-12.558594-8.824219-20.589844-8.824219-.007813 0-.015625 0-.023437 0-7.996094.003907-16.410157 3.140625-23.535157 8.609375-7.132812-5.472656-15.558593-8.613281-23.570312-8.609375-8.035157 0-15.15625 3.054688-20.585938 8.832031-13.328125 14.183594-13.328125 37.261719.003907 51.449219l26.703124 28.375c.148438.15625.304688.308594.464844.453125zm-16.097656-69.886718c2.523438-2.6875 5.722656-4.046876 9.511719-4.046876 6 0 12.910156 3.386719 18.035156 8.839844 1.433594 1.527344 3.4375 2.390625 5.535156 2.390625 2.097657 0 4.101563-.863281 5.535157-2.390625 5.121093-5.449218 12.019531-8.835937 18.007812-8.839844h.011719c3.792969 0 7 1.363282 9.527343 4.046876 7.945313 8.453124 7.945313 22.210937.003907 30.660156l-26.410157 28.042968c-5.285156 4.863282-7.851562 4.890626-13.292968.085938l-26.46875-28.125c-7.941406-8.453125-7.941406-22.210938.003906-30.664062zm0 0"/><path d="m64.835938 312.390625c0 16.855469 13.722656 30.566406 30.59375 30.566406 16.886718 0 30.625-13.710937 30.625-30.566406s-13.738282-30.570313-30.625-30.570313c-16.871094 0-30.59375 13.714844-30.59375 30.570313zm46.027343 0c0 8.488281-6.921875 15.390625-15.433593 15.390625-8.492188 0-15.402344-6.902344-15.402344-15.390625s6.910156-15.394531 15.402344-15.394531c8.511718 0 15.433593 6.90625 15.433593 15.394531zm0 0"/><path d="m178.800781 312.390625c0 16.855469 13.722657 30.566406 30.59375 30.566406 16.871094 0 30.59375-13.710937 30.59375-30.566406s-13.726562-30.570313-30.59375-30.570313c-16.871093 0-30.59375 13.714844-30.59375 30.570313zm30.59375-15.394531c8.492188 0 15.402344 6.90625 15.402344 15.394531s-6.910156 15.390625-15.402344 15.390625c-8.492187 0-15.40625-6.902344-15.40625-15.390625s6.914063-15.394531 15.40625-15.394531zm0 0"/><path d="m248.042969 137.164062h-196.601563c-11.359375 0-20.601562 9.25-20.601562 20.617188v196.4375c0 11.351562 9.242187 20.585938 20.601562 20.585938h78.703125c4.195313 0 7.59375-3.398438 7.59375-7.585938 0-4.191406-3.398437-7.589844-7.59375-7.589844h-78.703125c-2.933594 0-5.414062-2.476562-5.414062-5.40625v-196.441406c0-3 2.429687-5.4375 5.414062-5.4375h196.601563c3 0 5.441406 2.4375 5.441406 5.4375v196.4375c0 2.984375-2.441406 5.410156-5.441406 5.410156h-82.808594c-4.195313 0-7.597656 3.394532-7.597656 7.585938s3.402343 7.589844 7.597656 7.589844h82.808594c11.375 0 20.628906-9.234376 20.628906-20.585938v-196.4375c0-11.367188-9.253906-20.617188-20.628906-20.617188zm0 0"/></svg>